<?xml version="1.0" encoding="UTF-8"?>
<svg xmlns="http://www.w3.org/2000/svg" xmlns:xlink="http://www.w3.org/1999/xlink" width="259pt" height="179pt" viewBox="0 0 259 179" version="1.1">
<g id="surface1">
<path style="fill-rule:nonzero;fill:rgb(75.294495%,0%,0%);fill-opacity:1;stroke-width:25400;stroke-linecap:butt;stroke-linejoin:round;stroke:rgb(75.294495%,0%,0%);stroke-opacity:1;stroke-miterlimit:10;" d="M 0 120649.996139 C 0 54024.607646 56852.341931 0.000000000232831 126999.995936 0.000000000232831 C 197147.649941 0.000000000232831 253999.991872 54024.607646 253999.991872 120649.996139 C 253999.991872 187275.384632 197147.649941 241299.992278 126999.995936 241299.992278 C 56852.341931 241299.992278 0 187275.384632 0 120649.996139 Z M 0 120649.996139 " transform="matrix(0.0000787402,0,0,0.0000787402,148,38)"/>
<path style=" stroke:none;fill-rule:nonzero;fill:rgb(75.294495%,0%,0%);fill-opacity:1;" d="M 158 57.5 L 158 69.199219 L 155.5 69.199219 L 158.5 75.199219 L 161.5 69.199219 L 159 69.199219 L 159 57.5 Z M 158 57.5 "/>
<path style=" stroke:none;fill-rule:nonzero;fill:rgb(75.294495%,0%,0%);fill-opacity:1;" d="M 165.863281 54.15625 L 173.527344 62.300781 L 175.347656 60.589844 L 177.273438 67.015625 L 170.976562 64.699219 L 172.796875 62.988281 L 165.136719 54.84375 Z M 165.863281 54.15625 "/>
<path style=" stroke:none;fill-rule:nonzero;fill:rgb(75.294495%,0%,0%);fill-opacity:1;" d="M 179.152344 45.5 L 185.152344 48.5 L 179.152344 51.5 L 179.152344 49 L 168.5 49 L 168.5 48 L 179.152344 48 Z M 179.152344 45.5 "/>
<path style=" stroke:none;fill-rule:nonzero;fill:rgb(75.294495%,0%,0%);fill-opacity:1;" d="M 165.863281 41.359375 L 173.527344 33.210938 L 175.347656 34.925781 L 177.273438 28.5 L 170.976562 30.816406 L 172.796875 32.527344 L 165.136719 40.671875 Z M 165.863281 41.359375 "/>
<path style=" stroke:none;fill-rule:nonzero;fill:rgb(75.294495%,0%,0%);fill-opacity:1;" d="M 158 38.199219 L 158 26.5 L 155.5 26.5 L 158.5 20.5 L 161.5 26.5 L 159 26.5 L 159 38.199219 Z M 158 38.199219 "/>
<path style=" stroke:none;fill-rule:nonzero;fill:rgb(75.294495%,0%,0%);fill-opacity:1;" d="M 150.910156 41.359375 L 143.246094 33.210938 L 141.425781 34.925781 L 139.5 28.5 L 145.796875 30.816406 L 143.976562 32.527344 L 151.636719 40.671875 Z M 150.910156 41.359375 "/>
<path style=" stroke:none;fill-rule:nonzero;fill:rgb(75.294495%,0%,0%);fill-opacity:1;" d="M 137.5 45.5 L 131.5 48.5 L 137.5 51.5 L 137.5 49 L 148.152344 49 L 148.152344 48 L 137.5 48 Z M 137.5 45.5 "/>
<path style=" stroke:none;fill-rule:nonzero;fill:rgb(75.294495%,0%,0%);fill-opacity:1;" d="M 150.910156 54.15625 L 143.246094 62.300781 L 141.425781 60.589844 L 139.5 67.015625 L 145.796875 64.699219 L 143.976562 62.988281 L 151.636719 54.84375 Z M 150.910156 54.15625 "/>
<path style="fill-rule:nonzero;fill:rgb(75.294495%,0%,0%);fill-opacity:1;stroke-width:25400;stroke-linecap:butt;stroke-linejoin:round;stroke:rgb(75.294495%,0%,0%);stroke-opacity:1;stroke-miterlimit:10;" d="M 0 120649.996139 C 0 54024.607646 56852.341931 0.00000000030559 126999.995936 0.00000000030559 C 197147.649941 0.00000000030559 253999.991872 54024.607646 253999.991872 120649.996139 C 253999.991872 187275.384632 197147.649941 241299.992278 126999.995936 241299.992278 C 56852.341931 241299.992278 0 187275.384632 0 120649.996139 Z M 0 120649.996139 " transform="matrix(0.0000787402,0,0,0.0000787402,22,1)"/>
<path style="fill-rule:nonzero;fill:rgb(75.294495%,0%,0%);fill-opacity:1;stroke-width:25400;stroke-linecap:butt;stroke-linejoin:round;stroke:rgb(75.294495%,0%,0%);stroke-opacity:1;stroke-miterlimit:10;" d="M 0 120649.996139 C 0 54024.607646 56852.341931 0.000000000465661 126999.995936 0.000000000465661 C 197147.649941 0.000000000465661 253999.991872 54024.607646 253999.991872 120649.996139 C 253999.991872 187275.384632 197147.649941 241299.992278 126999.995936 241299.992278 C 56852.341931 241299.992278 0 187275.384632 0 120649.996139 Z M 0 120649.996139 " transform="matrix(0.0000787402,0,0,0.0000787402,30,149)"/>
<path style="fill-rule:nonzero;fill:rgb(43.920898%,18.823242%,62.745667%);fill-opacity:1;stroke-width:25400;stroke-linecap:butt;stroke-linejoin:round;stroke:rgb(43.920898%,18.823242%,62.745667%);stroke-opacity:1;stroke-miterlimit:10;" d="M 0 120649.996139 C 0 54024.607646 56852.341931 0.000000000232831 126999.995936 0.000000000232831 C 197147.649941 0.000000000232831 253999.991872 54024.607646 253999.991872 120649.996139 C 253999.991872 187275.384632 197147.649941 241299.992278 126999.995936 241299.992278 C 56852.341931 241299.992278 0 187275.384632 0 120649.996139 Z M 0 120649.996139 " transform="matrix(0.0000787402,0,0,0.0000787402,76,51)"/>
<path style="fill-rule:nonzero;fill:rgb(43.920898%,18.823242%,62.745667%);fill-opacity:1;stroke-width:25400;stroke-linecap:butt;stroke-linejoin:round;stroke:rgb(43.920898%,18.823242%,62.745667%);stroke-opacity:1;stroke-miterlimit:10;" d="M 0 120649.996139 C 0 54024.607646 56852.341931 0.000000000232831 126999.995936 0.000000000232831 C 197147.649941 0.000000000232831 253999.991872 54024.607646 253999.991872 120649.996139 C 253999.991872 187275.384632 197147.649941 241299.992278 126999.995936 241299.992278 C 56852.341931 241299.992278 0 187275.384632 0 120649.996139 Z M 0 120649.996139 " transform="matrix(0.0000787402,0,0,0.0000787402,171,144)"/>
<path style="fill-rule:nonzero;fill:rgb(43.920898%,18.823242%,62.745667%);fill-opacity:1;stroke-width:25400;stroke-linecap:butt;stroke-linejoin:round;stroke:rgb(43.920898%,18.823242%,62.745667%);stroke-opacity:1;stroke-miterlimit:10;" d="M 0 120649.996139 C 0 54024.607646 59680.076215 0.000000000232831 133349.995733 0.000000000232831 C 207019.91525 0.000000000232831 266699.991466 54024.607646 266699.991466 120649.996139 C 266699.991466 187275.384632 207019.91525 241299.992278 133349.995733 241299.992278 C 59680.076215 241299.992278 0 187275.384632 0 120649.996139 Z M 0 120649.996139 " transform="matrix(0.0000787402,0,0,0.0000787402,230,89)"/>
<path style="fill-rule:nonzero;fill:rgb(0%,69.020081%,31.37207%);fill-opacity:1;stroke-width:25400;stroke-linecap:butt;stroke-linejoin:round;stroke:rgb(0%,69.020081%,31.37207%);stroke-opacity:1;stroke-miterlimit:10;" d="M 0 120649.996139 C 0 54024.607646 56852.341931 0.000000000232831 126999.995936 0.000000000232831 C 197147.649941 0.000000000232831 253999.991872 54024.607646 253999.991872 120649.996139 C 253999.991872 187275.384632 197147.649941 241299.992278 126999.995936 241299.992278 C 56852.341931 241299.992278 0 187275.384632 0 120649.996139 Z M 0 120649.996139 " transform="matrix(0.0000787402,0,0,0.0000787402,191,67)"/>
<path style="fill-rule:nonzero;fill:rgb(0%,69.020081%,31.37207%);fill-opacity:1;stroke-width:25400;stroke-linecap:butt;stroke-linejoin:round;stroke:rgb(0%,69.020081%,31.37207%);stroke-opacity:1;stroke-miterlimit:10;" d="M 0 120649.996139 C 0 54024.607646 56852.341931 0 126999.995936 0 C 197147.649941 0 253999.991872 54024.607646 253999.991872 120649.996139 C 253999.991872 187275.384632 197147.649941 241299.992278 126999.995936 241299.992278 C 56852.341931 241299.992278 0 187275.384632 0 120649.996139 Z M 0 120649.996139 " transform="matrix(0.0000787402,0,0,0.0000787402,86,107)"/>
<path style="fill-rule:nonzero;fill:rgb(0%,69.020081%,31.37207%);fill-opacity:1;stroke-width:25400;stroke-linecap:butt;stroke-linejoin:round;stroke:rgb(0%,69.020081%,31.37207%);stroke-opacity:1;stroke-miterlimit:10;" d="M 0 120649.996139 C 0 54024.607646 56852.341931 0.000000000232831 126999.995936 0.000000000232831 C 197147.649941 0.000000000232831 253999.991872 54024.607646 253999.991872 120649.996139 C 253999.991872 187275.384632 197147.649941 241299.992278 126999.995936 241299.992278 C 56852.341931 241299.992278 0 187275.384632 0 120649.996139 Z M 0 120649.996139 " transform="matrix(0.0000787402,0,0,0.0000787402,226,148)"/>
<path style="fill-rule:nonzero;fill:rgb(0%,0%,100%);fill-opacity:1;stroke-width:25400;stroke-linecap:butt;stroke-linejoin:round;stroke:rgb(0%,0%,100%);stroke-opacity:1;stroke-miterlimit:10;" d="M 0 120649.996139 C 0 54024.607646 56852.341931 0.000000000232831 126999.995936 0.000000000232831 C 197147.649941 0.000000000232831 253999.991872 54024.607646 253999.991872 120649.996139 C 253999.991872 187275.384632 197147.649941 241299.992278 126999.995936 241299.992278 C 56852.341931 241299.992278 0 187275.384632 0 120649.996139 Z M 0 120649.996139 " transform="matrix(0.0000787402,0,0,0.0000787402,235,19)"/>
<path style="fill-rule:nonzero;fill:rgb(0%,0%,100%);fill-opacity:1;stroke-width:25400;stroke-linecap:butt;stroke-linejoin:round;stroke:rgb(0%,0%,100%);stroke-opacity:1;stroke-miterlimit:10;" d="M 0 120649.996139 C 0 54024.607646 56852.341931 0 126999.995936 0 C 197147.649941 0 253999.991872 54024.607646 253999.991872 120649.996139 C 253999.991872 187275.384632 197147.649941 241299.992278 126999.995936 241299.992278 C 56852.341931 241299.992278 0 187275.384632 0 120649.996139 Z M 0 120649.996139 " transform="matrix(0.0000787402,0,0,0.0000787402,1,107)"/>
<path style="fill-rule:nonzero;fill:rgb(0%,0%,100%);fill-opacity:1;stroke-width:25400;stroke-linecap:butt;stroke-linejoin:round;stroke:rgb(0%,0%,100%);stroke-opacity:1;stroke-miterlimit:10;" d="M 0 120649.996139 C 0 54024.607646 56852.341931 0.000000000232831 126999.995936 0.000000000232831 C 197147.649941 0.000000000232831 253999.991872 54024.607646 253999.991872 120649.996139 C 253999.991872 187275.384632 197147.649941 241299.992278 126999.995936 241299.992278 C 56852.341931 241299.992278 0 187275.384632 0 120649.996139 Z M 0 120649.996139 " transform="matrix(0.0000787402,0,0,0.0000787402,119,144)"/>
<path style="fill:none;stroke-width:25400;stroke-linecap:butt;stroke-linejoin:round;stroke:rgb(0%,69.020081%,31.37207%);stroke-opacity:1;stroke-dasharray:25400,25400;stroke-miterlimit:10;" d="M 92670.309535 549026.935556 C 228550.383311 463649.203913 738137.867005 562867.950738 981471.843593 475605.062906 C 1224805.820181 388292.5657 1412130.814187 82748.434852 1552723.778438 25399.999187 C 1693366.352062 -31948.436478 1777751.896237 9723.437189 1825228.066593 131415.23017 C 1872654.627575 253107.023151 1756717.52191 571450.372339 1837481.581826 755649.975819 C 1918245.641741 939799.969926 2253803.443503 1109811.292611 2309812.426086 1236513.632307 C 2365821.408669 1363265.581376 2243931.178194 1477714.405838 2173585.086695 1516012.842113 C 2103238.995196 1554261.669014 1986557.74893 1540470.263205 1887686.267719 1466155.421833 C 1788864.395881 1391790.971088 1674514.790166 1156245.666125 1580505.027549 1069925.356387 C 1486495.264932 983605.04665 1559172.996981 961975.359842 1323528.473272 948233.563407 C 1087834.340189 934541.376345 371574.20686 1054248.794389 166439.447799 987722.624643 C -38695.311262 921146.845523 -43160.154869 634355.057826 92670.309535 549026.935556 Z M 92670.309535 549026.935556 " transform="matrix(0.0000787402,0,0,0.0000787402,75,57)"/>
</g>
</svg>
